<svg xmlns="http://www.w3.org/2000/svg" xmlns:xlink="http://www.w3.org/1999/xlink" viewBox="0 0 204.39 195.22"><defs><style>.cls-1{fill:none;}.cls-2{fill:#ffcd23;}.cls-3{clip-path:url(#clip-path);}.cls-4{clip-path:url(#clip-path-2);}.cls-5{clip-path:url(#clip-path-3);}.cls-6{clip-path:url(#clip-path-4);}.cls-7{clip-path:url(#clip-path-5);}.cls-8{fill:#00bdf2;}.cls-9{clip-path:url(#clip-path-6);}.cls-10{fill:#e1eef9;}.cls-11{fill:#fff;}.cls-12{fill:url(#linear-gradient);}.cls-13{fill:#4bbfe8;}.cls-14,.cls-15{fill:#414042;}.cls-14{opacity:0.1;}</style><clipPath id="clip-path" transform="translate(0)"><path class="cls-2" d="M122.61,114.34A17.43,17.43,0,0,0,109,122.19L93.11,149.74c-2.48,4.32-.46,7.55,4.53,7.18l13-1c5-.36,7.07,3,4.72,7.31l-14.47,26.57c-2.39,4.38-1.18,5.38,2.69,2.21l52.24-43c3.84-3,3-5.52-2.05-5.28l-20,1c-5,.25-7-3-4.53-7.36l8.79-15.1c2.5-4.32.45-7.86-4.53-7.86Z"/></clipPath><clipPath id="clip-path-2" transform="translate(0)"><path class="cls-1" d="M39.74,127.34a7.79,7.79,0,0,0-6.09,3.52l-7.13,12.33c-1.1,1.93-.2,3.38,2,3.22l5.82-.43c2.21-.17,3.16,1.35,2.11,3.27L30,161.15c-1.07,2-.53,2.41,1.2,1l23.4-19.25c1.71-1.35,1.35-2.47-.92-2.36l-8.94.46c-2.23.11-3.14-1.36-2-3.3l3.94-6.76c1.12-1.94.2-3.52-2-3.52Z"/></clipPath><clipPath id="clip-path-3" transform="translate(0)"><path class="cls-1" d="M70,133.76a9,9,0,0,0-7,4.06l-8.24,14.26c-1.28,2.24-.23,3.91,2.35,3.72l6.72-.5c2.57-.19,3.66,1.56,2.44,3.78l-7.49,13.76c-1.23,2.27-.61,2.78,1.39,1.14l27.05-22.24c2-1.57,1.56-2.87-1.06-2.74l-10.34.53c-2.58.13-3.62-1.56-2.34-3.81L78,137.9c1.3-2.24.23-4.06-2.35-4.06Z"/></clipPath><clipPath id="clip-path-4" transform="translate(0)"><path class="cls-1" d="M175.61,129.34a7.71,7.71,0,0,0-6,3.49L162.52,145c-1.1,1.92-.2,3.35,2,3.19l5.76-.43c2.2-.16,3.13,1.34,2.09,3.24L166,162.83c-1.06,1.94-.52,2.38,1.19,1l23.18-19.06c1.7-1.34,1.34-2.45-.91-2.35l-8.86.46c-2.21.11-3.1-1.34-2-3.27l3.9-6.7c1.11-1.91.2-3.48-2-3.48Z"/></clipPath><clipPath id="clip-path-5" transform="translate(0)"><path class="cls-1" d="M136.15,12.27A44.09,44.09,0,0,1,148.7,98.7a2.33,2.33,0,0,1-2.27-.6,2.23,2.23,0,0,1-.58-2.26,39.49,39.49,0,0,0-38.12-50.2A40.12,40.12,0,0,0,96.9,47.27a2.29,2.29,0,0,1-3-1.27,2.32,2.32,0,0,1,0-1.58A44.31,44.31,0,0,1,136.15,12.27Z"/></clipPath><clipPath id="clip-path-6" transform="translate(0)"><path class="cls-1" d="M138.92,125.64a32.23,32.23,0,1,0,2-64.42c-.65,0-1.31,0-2,0h-.33a51.34,51.34,0,0,0-98-15.31h-.76a39.87,39.87,0,0,0,0,79.73"/></clipPath><linearGradient id="linear-gradient" x1="93.11" y1="379.18" x2="203.61" y2="379.18" gradientTransform="matrix(1, 0, 0, -1, 0, 470.29)" gradientUnits="userSpaceOnUse"><stop offset="0" stop-color="#ffcd23"/><stop offset="1" stop-color="#ef9c07"/></linearGradient></defs><g id="Layer_2" data-name="Layer 2"><g id="DESIGNED_BY_FREEPIK" data-name="DESIGNED BY FREEPIK"><path class="cls-2" d="M122.61,114.34A17.43,17.43,0,0,0,109,122.19L93.11,149.74c-2.48,4.32-.46,7.55,4.53,7.18l13-1c5-.36,7.07,3,4.72,7.31l-14.47,26.57c-2.39,4.38-1.18,5.38,2.69,2.21l52.24-43c3.84-3,3-5.52-2.05-5.28l-20,1c-5,.25-7-3-4.53-7.36l8.79-15.1c2.5-4.32.45-7.86-4.53-7.86Z" transform="translate(0)"/><g class="cls-3"><polygon class="cls-2" points="136.44 114.34 131.17 114.34 125.9 114.34 120.63 114.34 115.36 114.34 110.08 114.34 106.73 114.34 105.77 115.3 103.13 117.94 100.5 120.57 97.86 123.21 95.22 125.84 92.59 128.48 90.63 130.43 90.63 131.8 90.63 137.07 90.63 142.34 90.63 147.62 90.63 152.89 90.63 158.17 90.63 163.44 90.63 168.72 90.63 173.99 90.63 179.26 90.63 184.54 90.63 195.22 101.31 195.22 106.58 195.22 111.85 195.22 117.12 195.22 118.99 195.22 120.69 193.52 123.33 190.88 125.97 188.25 128.6 185.61 131.24 182.98 133.88 180.34 136.51 177.71 139.15 175.07 141.79 172.43 144.43 169.8 147.06 167.16 149.7 164.53 152.34 161.89 154.97 159.25 157.61 156.62 159.64 154.59 159.64 153.37 159.64 148.1 159.64 142.83 159.64 137.55 159.64 114.34 136.44 114.34"/></g><g class="cls-4"><polygon class="cls-2" points="45.93 127.34 43.57 127.34 41.21 127.34 38.85 127.34 36.49 127.34 34.13 127.34 32.62 127.34 32.19 127.77 31.01 128.95 29.83 130.13 28.65 131.31 27.47 132.49 26.29 133.67 25.41 134.55 25.41 135.16 25.41 137.52 25.41 139.88 25.41 142.24 25.41 144.6 25.41 146.97 25.41 149.33 25.41 151.69 25.41 154.05 25.41 156.41 25.41 158.77 25.41 163.56 30.2 163.56 32.56 163.56 34.92 163.56 37.28 163.56 38.11 163.56 38.88 162.79 40.06 161.62 41.24 160.44 42.42 159.25 43.6 158.07 44.78 156.89 45.96 155.71 47.14 154.53 48.32 153.35 49.5 152.17 50.68 150.99 51.86 149.81 53.05 148.63 54.23 147.45 55.41 146.27 56.31 145.37 56.31 144.82 56.31 142.46 56.31 140.1 56.31 137.74 56.31 127.34 45.93 127.34"/></g><g class="cls-5"><polygon class="cls-2" points="77.13 133.76 74.4 133.76 71.67 133.76 68.94 133.76 66.21 133.76 63.48 133.76 61.75 133.76 61.25 134.25 59.88 135.62 58.52 136.98 57.16 138.35 55.79 139.71 54.42 141.07 53.41 142.09 53.41 142.79 53.41 145.52 53.41 148.25 53.41 150.98 53.41 153.71 53.41 156.44 53.41 159.17 53.41 161.9 53.41 164.63 53.41 167.36 53.41 170.09 53.41 175.62 58.94 175.62 61.67 175.62 64.4 175.62 67.13 175.62 68.09 175.62 68.97 174.74 70.34 173.38 71.7 172.01 73.07 170.65 74.44 169.29 75.8 167.92 77.17 166.56 78.53 165.19 79.89 163.83 81.26 162.46 82.63 161.1 83.99 159.74 85.36 158.37 86.72 157.01 88.09 155.64 89.14 154.59 89.14 153.96 89.14 151.23 89.14 148.5 89.14 145.77 89.14 133.76 77.13 133.76"/></g><g class="cls-6"><polygon class="cls-2" points="181.74 129.34 179.4 129.34 177.06 129.34 174.73 129.34 172.39 129.34 170.05 129.34 168.56 129.34 168.14 129.77 166.97 130.94 165.8 132.1 164.63 133.27 163.46 134.44 162.29 135.61 161.42 136.48 161.42 137.08 161.42 139.42 161.42 141.76 161.42 144.1 161.42 146.44 161.42 148.78 161.42 151.12 161.42 153.46 161.42 155.8 161.42 158.14 161.42 160.48 161.42 165.22 166.16 165.22 168.49 165.22 170.83 165.22 173.17 165.22 174 165.22 174.75 164.46 175.92 163.29 177.09 162.12 178.26 160.95 179.43 159.78 180.6 158.62 181.77 157.45 182.94 156.28 184.11 155.11 185.28 153.94 186.45 152.77 187.62 151.6 188.79 150.43 189.96 149.26 191.13 148.09 192.03 147.19 192.03 146.66 192.03 144.31 192.03 141.98 192.03 139.64 192.03 129.34 181.74 129.34"/></g><g class="cls-7"><polygon class="cls-8" points="180.65 88.11 180.62 81.83 180.58 75.55 180.55 69.26 180.51 62.98 180.48 56.7 180.44 50.42 180.41 44.14 180.38 37.86 180.23 12.03 154.39 12.17 148.1 12.2 141.82 12.24 135.53 12.27 129.25 12.31 122.96 12.34 116.68 12.38 110.39 12.41 104.1 12.44 103.67 12.45 100.76 15.39 97.64 18.55 94.52 21.71 93.57 22.67 93.59 27.04 93.63 33.33 93.66 39.61 93.7 45.89 93.99 99.22 147.35 98.92 153.63 98.89 159.92 98.86 166.21 98.82 170.56 98.8 171.52 97.82 174.64 94.66 177.76 91.5 180.65 88.58 180.65 88.11"/></g><g class="cls-9"><polygon class="cls-10" points="105.85 12.65 94.35 12.65 82.85 12.65 71.36 12.65 59.86 12.65 48.36 12.65 42.58 12.65 39.72 15.5 33.97 21.25 28.22 27 22.47 32.75 16.72 38.5 10.97 44.25 5.22 49.99 0 55.21 0 56.28 0 67.78 0 79.28 0 90.78 0 102.28 0 126.18 23.89 126.18 35.39 126.18 46.89 126.18 58.38 126.18 69.88 126.18 81.38 126.18 92.88 126.18 104.38 126.18 115.87 126.18 127.37 126.18 138.87 126.18 150.37 126.18 161.86 126.18 166.13 126.18 169.75 122.57 172.66 119.66 172.66 113.98 172.66 102.48 172.66 90.98 172.66 79.48 172.66 12.65 105.85 12.65"/></g><path class="cls-11" d="M181.87,125.64a20.24,20.24,0,1,0,1.56-40.44q-.78,0-1.56,0h-.22a32.28,32.28,0,0,0-61.51-9.6h-.49a25,25,0,0,0-1.74,50q.87,0,1.74,0" transform="translate(0)"/><path class="cls-12" d="M182.67,127.16h-.86l.11-3a18.72,18.72,0,1,0,1.45-37.42c-.48,0-1,0-1.45,0l-1.4.05-.36-1.39a30.78,30.78,0,0,0-58.65-9.16l-.4.89h-1.46a23.53,23.53,0,1,0-1.68,47c.54,0,1.09,0,1.63,0l.1,3c-.61,0-1.22,0-1.84,0a26.55,26.55,0,0,1,1.32-53.08,34,34,0,0,1,26.58-18.8A33.78,33.78,0,0,1,183,83.68h.52a21.74,21.74,0,0,1-.82,43.47Z" transform="translate(0)"/><path class="cls-11" d="M170.63,0a26.89,26.89,0,0,0-23.17,40.54L143,53.14l11.26-4.89A26.89,26.89,0,1,0,170.63,0Z" transform="translate(0)"/><path class="cls-13" d="M155,25.66,152.4,16.9h2.65l1.19,5.39h.07l1.42-5.39h2.09l1.42,5.4h.07l1.19-5.4h2.65l-2.58,8.76H160.3l-1.49-4.89h-.07l-1.49,4.89Z" transform="translate(0)"/><path class="cls-13" d="M168.32,22v3.7H166V16.9h2.27v3.44h.07a1.88,1.88,0,0,1,.74-1,2.11,2.11,0,0,1,1.24-.36,2.25,2.25,0,0,1,1.21.32,2.1,2.1,0,0,1,.8.87,2.65,2.65,0,0,1,.28,1.28v4.19h-2.36V22a1,1,0,0,0-.24-.76.86.86,0,0,0-.7-.28.93.93,0,0,0-.5.13.86.86,0,0,0-.33.35A1.25,1.25,0,0,0,168.32,22Z" transform="translate(0)"/><path class="cls-13" d="M176.9,25.78a3.75,3.75,0,0,1-1.83-.43,2.86,2.86,0,0,1-1.17-1.19,4.12,4.12,0,0,1,0-3.54,2.86,2.86,0,0,1,1.17-1.19,4.11,4.11,0,0,1,3.66,0,2.86,2.86,0,0,1,1.17,1.19,4.12,4.12,0,0,1,0,3.54,2.86,2.86,0,0,1-1.17,1.19A3.75,3.75,0,0,1,176.9,25.78Zm0-1.75a.73.73,0,0,0,.51-.2,1.22,1.22,0,0,0,.34-.57,3,3,0,0,0,.12-.89,2.84,2.84,0,0,0-.12-.88,1.31,1.31,0,0,0-.34-.58.73.73,0,0,0-.51-.2.85.85,0,0,0-.55.2,1.31,1.31,0,0,0-.34.58,2.84,2.84,0,0,0-.12.88,3,3,0,0,0,.12.89,1.22,1.22,0,0,0,.34.57A.85.85,0,0,0,176.92,24Z" transform="translate(0)"/><path class="cls-13" d="M184.42,25.78a3.75,3.75,0,0,1-1.83-.43,2.89,2.89,0,0,1-1.16-1.19,4,4,0,0,1,0-3.54,2.89,2.89,0,0,1,1.16-1.19,3.75,3.75,0,0,1,1.83-.43,3.7,3.7,0,0,1,1.83.43,2.86,2.86,0,0,1,1.17,1.19,4,4,0,0,1,0,3.54,2.86,2.86,0,0,1-1.17,1.19A3.7,3.7,0,0,1,184.42,25.78Zm0-1.75a.77.77,0,0,0,.52-.2,1.31,1.31,0,0,0,.34-.57,3,3,0,0,0,.12-.89,2.84,2.84,0,0,0-.12-.88,1.42,1.42,0,0,0-.34-.58.77.77,0,0,0-.52-.2.8.8,0,0,0-.54.2,1.33,1.33,0,0,0-.35.58,2.84,2.84,0,0,0-.12.88,3,3,0,0,0,.12.89,1.23,1.23,0,0,0,.35.57A.8.8,0,0,0,184.44,24Z" transform="translate(0)"/><path class="cls-13" d="M156,35.66a3.64,3.64,0,0,1-1.83-.43A2.89,2.89,0,0,1,153,34a3.67,3.67,0,0,1-.41-1.77A3.73,3.73,0,0,1,153,30.5a3,3,0,0,1,1.16-1.19,3.75,3.75,0,0,1,1.83-.42,3.7,3.7,0,0,1,1.83.42A2.91,2.91,0,0,1,159,30.5a3.73,3.73,0,0,1,.41,1.77A3.67,3.67,0,0,1,159,34a2.86,2.86,0,0,1-1.17,1.19A3.59,3.59,0,0,1,156,35.66Zm0-1.75a.72.72,0,0,0,.52-.2,1.31,1.31,0,0,0,.34-.57,3.32,3.32,0,0,0,0-1.77,1.31,1.31,0,0,0-.34-.57.72.72,0,0,0-.52-.2.76.76,0,0,0-.54.2,1.23,1.23,0,0,0-.35.57,3.32,3.32,0,0,0,0,1.77,1.23,1.23,0,0,0,.35.57A.76.76,0,0,0,156,33.91Z" transform="translate(0)"/><path class="cls-13" d="M163.48,35.66a3.59,3.59,0,0,1-1.83-.43A2.86,2.86,0,0,1,160.48,34a3.67,3.67,0,0,1-.41-1.77,3.73,3.73,0,0,1,.41-1.77,2.91,2.91,0,0,1,1.17-1.19,3.7,3.7,0,0,1,1.83-.42,3.75,3.75,0,0,1,1.83.42,3,3,0,0,1,1.16,1.19,3.73,3.73,0,0,1,.41,1.77,3.67,3.67,0,0,1-.41,1.77,2.89,2.89,0,0,1-1.16,1.19A3.64,3.64,0,0,1,163.48,35.66Zm0-1.75a.71.71,0,0,0,.52-.2,1.22,1.22,0,0,0,.34-.57,3.32,3.32,0,0,0,0-1.77,1.22,1.22,0,0,0-.34-.57.71.71,0,0,0-.52-.2.76.76,0,0,0-.54.2,1.22,1.22,0,0,0-.34.57,3.32,3.32,0,0,0,0,1.77,1.22,1.22,0,0,0,.34.57A.76.76,0,0,0,163.49,33.91Z" transform="translate(0)"/><path class="cls-13" d="M167.84,38V29h2.34v1.15h0a2,2,0,0,1,.38-.61,1.73,1.73,0,0,1,.61-.45,1.94,1.94,0,0,1,.86-.17,2.44,2.44,0,0,1,1.24.34,2.5,2.5,0,0,1,1,1.09,4.33,4.33,0,0,1,.37,1.94,4.35,4.35,0,0,1-.35,1.88,2.56,2.56,0,0,1-.94,1.12,2.41,2.41,0,0,1-1.29.36,2.1,2.1,0,0,1-.82-.15,1.92,1.92,0,0,1-.62-.41,1.94,1.94,0,0,1-.39-.6h0V38Zm2.31-5.74a2.49,2.49,0,0,0,.12.82,1.22,1.22,0,0,0,.36.54.93.93,0,0,0,1.11,0,1.16,1.16,0,0,0,.35-.54,2.75,2.75,0,0,0,0-1.67,1.08,1.08,0,0,0-.35-.53.8.8,0,0,0-.55-.19.85.85,0,0,0-.56.19,1.24,1.24,0,0,0-.36.53A2.57,2.57,0,0,0,170.15,32.26Z" transform="translate(0)"/><path class="cls-13" d="M181.64,31.11h-2.18a.57.57,0,0,0-.14-.35.87.87,0,0,0-.31-.22,1.27,1.27,0,0,0-1,0,.35.35,0,0,0-.21.32.38.38,0,0,0,.13.27,1,1,0,0,0,.5.19l1.34.24a3.07,3.07,0,0,1,1.5.62,1.49,1.49,0,0,1,.5,1.16,1.91,1.91,0,0,1-.42,1.21,2.6,2.6,0,0,1-1.12.8,4.39,4.39,0,0,1-1.63.28,4,4,0,0,1-2.35-.62,2.23,2.23,0,0,1-.95-1.62h2.35a.64.64,0,0,0,.31.48,1.37,1.37,0,0,0,1.2.06.34.34,0,0,0,0-.62,1.91,1.91,0,0,0-.57-.18L177.5,33a2.83,2.83,0,0,1-1.51-.67A1.71,1.71,0,0,1,175.5,31a1.88,1.88,0,0,1,.36-1.16,2.22,2.22,0,0,1,1-.72,4.58,4.58,0,0,1,1.61-.25,3.75,3.75,0,0,1,2.25.59A2,2,0,0,1,181.64,31.11Z" transform="translate(0)"/><path class="cls-13" d="M184.25,35.68a1.19,1.19,0,0,1-.85-.35,1.12,1.12,0,0,1-.34-.85,1.08,1.08,0,0,1,.34-.83,1.15,1.15,0,0,1,.85-.35,1.12,1.12,0,0,1,.83.35,1.11,1.11,0,0,1,.37.83,1.13,1.13,0,0,1-.17.6,1.42,1.42,0,0,1-.44.44A1.21,1.21,0,0,1,184.25,35.68Zm1.2-8.9-.22,6h-1.95l-.22-6Z" transform="translate(0)"/><path class="cls-14" d="M170.63,53.78a26.88,26.88,0,0,0,21.89-42.49C187.21,23.2,174.69,41,147.29,41L143,53.14l11.26-4.89A26.74,26.74,0,0,0,170.63,53.78Z" transform="translate(0)"/><path class="cls-15" d="M132.5,96.88l-1.15-.19A2.19,2.19,0,1,1,127.1,96l-1.1-.19a4.16,4.16,0,1,0,6.66,1.39Z" transform="translate(0)"/><path class="cls-15" d="M153.25,112.27a.6.6,0,0,1-.6-.6,4.92,4.92,0,0,0-9.84,0,.6.6,0,0,1-.6.6.6.6,0,0,1-.6-.6,6.12,6.12,0,1,1,12.24,0A.6.6,0,0,1,153.25,112.27Z" transform="translate(0)"/><path class="cls-8" d="M83.69,100.21a6.2,6.2,0,0,1-4.51-1.85,6,6,0,0,1-1.85-4.51,5.91,5.91,0,0,1,1.85-4.44,6.34,6.34,0,0,1,8.93,0,6,6,0,0,1,2,4.44,6.22,6.22,0,0,1-.92,3.21,6.83,6.83,0,0,1-2.33,2.3A6,6,0,0,1,83.69,100.21Zm6.37-49.27-1.19,32H78.51l-1.18-32Z" transform="translate(0)"/><path class="cls-15" d="M169.08,95.72l-1.32.14a2.14,2.14,0,0,1,0,1.5,2.18,2.18,0,0,1-4.22-1.08l-.75.08a4,4,0,0,0-.55,1,4.17,4.17,0,1,0,6.8-1.68Z" transform="translate(0)"/></g></g></svg>