<svg xmlns="http://www.w3.org/2000/svg" xmlns:xlink="http://www.w3.org/1999/xlink" viewBox="0 0 75 75"><defs><style>.cls-1{fill:#fff;stroke-miterlimit:10;stroke:url(#linear-gradient);}.cls-2{fill:url(#New_Gradient_Swatch_copy_2);}.cls-3{fill:url(#New_Gradient_Swatch_copy);}.cls-4{fill:url(#New_Gradient_Swatch_copy-2);}.cls-5{fill:url(#New_Gradient_Swatch_copy-3);}.cls-6{fill:url(#New_Gradient_Swatch_copy-4);}</style><linearGradient id="linear-gradient" x1="3.54" y1="28.35" x2="61.21" y2="28.35" gradientUnits="userSpaceOnUse"><stop offset="0" stop-color="#347bbf"/><stop offset="1" stop-color="#4f58a7"/></linearGradient><linearGradient id="New_Gradient_Swatch_copy_2" x1="42.79" y1="49.13" x2="63.11" y2="28.8" gradientUnits="userSpaceOnUse"><stop offset="0" stop-color="#d0e8f8"/><stop offset="1" stop-color="#e1eef9"/></linearGradient><linearGradient id="New_Gradient_Swatch_copy" x1="13.17" y1="55.37" x2="26.17" y2="55.37" gradientUnits="userSpaceOnUse"><stop offset="0" stop-color="#00aeef"/><stop offset="1" stop-color="#00bdf2"/></linearGradient><linearGradient id="New_Gradient_Swatch_copy-2" x1="29.67" y1="55.37" x2="47.67" y2="55.37" xlink:href="#New_Gradient_Swatch_copy"/><linearGradient id="New_Gradient_Swatch_copy-3" x1="13.17" y1="63.37" x2="36.17" y2="63.37" xlink:href="#New_Gradient_Swatch_copy"/><linearGradient id="New_Gradient_Swatch_copy-4" x1="39.67" y1="63.37" x2="57.67" y2="63.37" xlink:href="#New_Gradient_Swatch_copy"/></defs><g id="Icons"><g id="Fog"><path class="cls-1" d="M50,46.57a10.67,10.67,0,1,0,0-21.33h-.1a17,17,0,0,0-32.45-5.07h-.25a13.2,13.2,0,0,0,0,26.4"/><path class="cls-2" d="M64.26,46.57a6.7,6.7,0,1,0,0-13.39h-.07A10.69,10.69,0,0,0,43.82,30h-.16a8.29,8.29,0,0,0,0,16.57"/><path class="cls-3" d="M24.67,56.87h-10a1.5,1.5,0,1,1,0-3h10a1.5,1.5,0,0,1,0,3Z"/><path class="cls-4" d="M46.17,56.87h-15a1.5,1.5,0,1,1,0-3h15a1.5,1.5,0,0,1,0,3Z"/><path class="cls-5" d="M34.67,64.87h-20a1.5,1.5,0,1,1,0-3h20a1.5,1.5,0,0,1,0,3Z"/><path class="cls-6" d="M56.17,64.87h-15a1.5,1.5,0,1,1,0-3h15a1.5,1.5,0,1,1,0,3Z"/></g></g></svg>