<svg xmlns="http://www.w3.org/2000/svg" xmlns:xlink="http://www.w3.org/1999/xlink" viewBox="0 0 75 75"><defs><style>.cls-1{fill:url(#New_Gradient_Swatch_1);}.cls-2{fill:#fff;stroke-miterlimit:10;stroke:url(#linear-gradient);}.cls-3{fill:url(#New_Gradient_Swatch_copy_2);}</style><linearGradient id="New_Gradient_Swatch_1" x1="43.2" y1="39.5" x2="61.53" y2="21.17" gradientUnits="userSpaceOnUse"><stop offset="0" stop-color="#fdb728"/><stop offset="1" stop-color="#ffcd23"/></linearGradient><linearGradient id="linear-gradient" x1="3.54" y1="39.41" x2="61.21" y2="39.41" gradientUnits="userSpaceOnUse"><stop offset="0" stop-color="#347bbf"/><stop offset="1" stop-color="#4f58a7"/></linearGradient><linearGradient id="New_Gradient_Swatch_copy_2" x1="42.79" y1="60.19" x2="63.11" y2="39.86" gradientUnits="userSpaceOnUse"><stop offset="0" stop-color="#d0e8f8"/><stop offset="1" stop-color="#e1eef9"/></linearGradient></defs><g id="Icons"><g id="Party_Cloudy" data-name="Party Cloudy"><circle class="cls-1" cx="52.36" cy="30.33" r="12.96"/><path class="cls-2" d="M50,57.63A10.67,10.67,0,1,0,50,36.3h-.1a17,17,0,0,0-32.45-5.07h-.25a13.2,13.2,0,0,0,0,26.4"/><path class="cls-3" d="M64.26,57.63a6.7,6.7,0,1,0,0-13.39h-.07a10.69,10.69,0,0,0-20.37-3.18h-.16a8.29,8.29,0,0,0,0,16.58"/></g></g></svg>