<svg xmlns="http://www.w3.org/2000/svg" xmlns:xlink="http://www.w3.org/1999/xlink" viewBox="0 0 75 75"><defs><style>.cls-1{fill:#fff;stroke-miterlimit:10;stroke:url(#linear-gradient);}.cls-2{fill:url(#New_Gradient_Swatch_copy_2);}.cls-3{fill:url(#New_Gradient_Swatch_copy);}.cls-4{fill:url(#New_Gradient_Swatch_copy-2);}.cls-5{fill:url(#New_Gradient_Swatch_copy-3);}.cls-6{fill:url(#New_Gradient_Swatch_copy-4);}</style><linearGradient id="linear-gradient" x1="3.54" y1="23.17" x2="61.21" y2="23.17" gradientUnits="userSpaceOnUse"><stop offset="0" stop-color="#347bbf"/><stop offset="1" stop-color="#4f58a7"/></linearGradient><linearGradient id="New_Gradient_Swatch_copy_2" x1="42.79" y1="43.94" x2="63.11" y2="23.62" gradientUnits="userSpaceOnUse"><stop offset="0" stop-color="#d0e8f8"/><stop offset="1" stop-color="#e1eef9"/></linearGradient><linearGradient id="New_Gradient_Swatch_copy" x1="8.86" y1="56.36" x2="19.36" y2="56.36" gradientUnits="userSpaceOnUse"><stop offset="0" stop-color="#00aeef"/><stop offset="1" stop-color="#00bdf2"/></linearGradient><linearGradient id="New_Gradient_Swatch_copy-2" x1="16" y1="59.39" x2="30" y2="59.39" xlink:href="#New_Gradient_Swatch_copy"/><linearGradient id="New_Gradient_Swatch_copy-3" x1="40.78" y1="55.93" x2="50.78" y2="55.93" xlink:href="#New_Gradient_Swatch_copy"/><linearGradient id="New_Gradient_Swatch_copy-4" x1="28.89" y1="57.66" x2="40.89" y2="57.66" xlink:href="#New_Gradient_Swatch_copy"/></defs><g id="Icons"><g id="Heavy_Rain" data-name="Heavy Rain"><path class="cls-1" d="M50,41.39a10.67,10.67,0,1,0,0-21.33h-.1A17,17,0,0,0,17.49,15h-.25a13.2,13.2,0,0,0,0,26.4"/><path class="cls-2" d="M64.26,41.39a6.7,6.7,0,0,0,0-13.4h-.07a10.69,10.69,0,0,0-20.37-3.19h-.16a8.29,8.29,0,0,0,0,16.58"/><path class="cls-3" d="M10.86,64a2,2,0,0,1-1.73-3l6.49-11.26a2,2,0,0,1,3.47,2L12.59,63A2,2,0,0,1,10.86,64Z"/><path class="cls-4" d="M18,70.05a1.91,1.91,0,0,1-1-.27,2,2,0,0,1-.73-2.73l10-17.32a2,2,0,1,1,3.46,2l-10,17.32A2,2,0,0,1,18,70.05Z"/><path class="cls-5" d="M42.78,63.12a2,2,0,0,1-1.73-3l6-10.39a2,2,0,1,1,3.46,2l-6,10.39A2,2,0,0,1,42.78,63.12Z"/><path class="cls-6" d="M30.89,66.59a2,2,0,0,1-1.73-3l8-13.86a2,2,0,1,1,3.46,2l-8,13.86A2,2,0,0,1,30.89,66.59Z"/></g></g></svg>