<svg xmlns="http://www.w3.org/2000/svg" xmlns:xlink="http://www.w3.org/1999/xlink" viewBox="0 0 75 75"><defs><style>.cls-1{fill:url(#New_Gradient_Swatch_copy);}.cls-2{fill:url(#New_Gradient_Swatch_1);}.cls-3{fill:url(#New_Gradient_Swatch_1-2);}</style><linearGradient id="New_Gradient_Swatch_copy" x1="21.54" y1="57.21" x2="46.31" y2="32.44" gradientUnits="userSpaceOnUse"><stop offset="0" stop-color="#00aeef"/><stop offset="1" stop-color="#00bdf2"/></linearGradient><linearGradient id="New_Gradient_Swatch_1" x1="49.28" y1="31.43" x2="55.08" y2="25.63" gradientUnits="userSpaceOnUse"><stop offset="0" stop-color="#fdb728"/><stop offset="1" stop-color="#ffcd23"/></linearGradient><linearGradient id="New_Gradient_Swatch_1-2" x1="42.52" y1="15.99" x2="45.91" y2="12.6" xlink:href="#New_Gradient_Swatch_1"/></defs><g id="Icons"><g id="Clear_Night" data-name="Clear Night"><path class="cls-1" d="M37.93,64a23.18,23.18,0,0,1-6.4-45.46,1.21,1.21,0,0,1,1.2.31,1.19,1.19,0,0,1,.3,1.19A20.72,20.72,0,0,0,53,46.54a21,21,0,0,0,5.74-.82,1.22,1.22,0,0,1,1.5,1.5A23.28,23.28,0,0,1,37.93,64Z"/><path class="cls-2" d="M53,33c-.43,1.58-1.14,1.58-1.57,0a5.8,5.8,0,0,0-3.67-3.68c-1.59-.43-1.59-1.14,0-1.57a5.78,5.78,0,0,0,3.67-3.67c.43-1.59,1.14-1.59,1.57,0a5.8,5.8,0,0,0,3.67,3.67c1.59.43,1.59,1.14,0,1.57A5.82,5.82,0,0,0,53,33Z"/><path class="cls-3" d="M44.67,16.9c-.25.93-.67.93-.92,0a3.39,3.39,0,0,0-2.14-2.15c-.93-.25-.93-.66,0-.92a3.38,3.38,0,0,0,2.14-2.14c.25-.93.67-.93.92,0a3.37,3.37,0,0,0,2.15,2.14c.93.26.93.67,0,.92A3.38,3.38,0,0,0,44.67,16.9Z"/></g></g></svg>