<svg xmlns="http://www.w3.org/2000/svg" xmlns:xlink="http://www.w3.org/1999/xlink" viewBox="0 0 75 75"><defs><style>.cls-1{fill:#fff;stroke-miterlimit:10;stroke:url(#linear-gradient);}.cls-2{fill:url(#New_Gradient_Swatch_copy_2);}.cls-3{fill:url(#New_Gradient_Swatch_copy_2-2);}.cls-4{fill:url(#New_Gradient_Swatch_copy_2-3);}.cls-5{fill:url(#New_Gradient_Swatch_copy_2-4);}</style><linearGradient id="linear-gradient" x1="3.54" y1="25.03" x2="61.21" y2="25.03" gradientUnits="userSpaceOnUse"><stop offset="0" stop-color="#347bbf"/><stop offset="1" stop-color="#4f58a7"/></linearGradient><linearGradient id="New_Gradient_Swatch_copy_2" x1="42.79" y1="45.81" x2="63.11" y2="25.49" gradientUnits="userSpaceOnUse"><stop offset="0" stop-color="#d0e8f8"/><stop offset="1" stop-color="#e1eef9"/></linearGradient><linearGradient id="New_Gradient_Swatch_copy_2-2" x1="14.32" y1="56.37" x2="23.98" y2="56.37" xlink:href="#New_Gradient_Swatch_copy_2"/><linearGradient id="New_Gradient_Swatch_copy_2-3" x1="42.23" y1="56.37" x2="51.89" y2="56.37" xlink:href="#New_Gradient_Swatch_copy_2"/><linearGradient id="New_Gradient_Swatch_copy_2-4" x1="28.76" y1="63.35" x2="38.42" y2="63.35" xlink:href="#New_Gradient_Swatch_copy_2"/></defs><g id="Icons"><g id="Hail"><path class="cls-1" d="M50,43.25a10.66,10.66,0,1,0,0-21.32h-.1a17,17,0,0,0-32.45-5.07h-.25a13.2,13.2,0,1,0,0,26.39"/><path class="cls-2" d="M64.26,43.25a6.7,6.7,0,1,0,0-13.39h-.07a10.69,10.69,0,0,0-20.37-3.18h-.16a8.29,8.29,0,0,0,0,16.57"/><circle class="cls-3" cx="19.15" cy="56.37" r="4.83"/><circle class="cls-4" cx="47.06" cy="56.37" r="4.83"/><circle class="cls-5" cx="33.59" cy="63.35" r="4.83"/></g></g></svg>