<svg xmlns="http://www.w3.org/2000/svg" xmlns:xlink="http://www.w3.org/1999/xlink" viewBox="0 0 75 75"><defs><style>.cls-1{fill:url(#New_Gradient_Swatch_copy);}.cls-2{fill:url(#New_Gradient_Swatch_copy_2);}.cls-3{fill:#fff;stroke-miterlimit:10;stroke:url(#linear-gradient);}</style><linearGradient id="New_Gradient_Swatch_copy" x1="46.62" y1="39.33" x2="62.22" y2="23.73" gradientUnits="userSpaceOnUse"><stop offset="0" stop-color="#00aeef"/><stop offset="1" stop-color="#00bdf2"/></linearGradient><linearGradient id="New_Gradient_Swatch_copy_2" x1="15.8" y1="64.13" x2="48.17" y2="31.76" gradientUnits="userSpaceOnUse"><stop offset="0" stop-color="#d0e8f8"/><stop offset="1" stop-color="#e1eef9"/></linearGradient><linearGradient id="linear-gradient" x1="34.83" y1="48.61" x2="71.42" y2="48.61" gradientUnits="userSpaceOnUse"><stop offset="0" stop-color="#347bbf"/><stop offset="1" stop-color="#4f58a7"/></linearGradient></defs><g id="Icons"><g id="Mostly_Cloudy_Night" data-name="Mostly Cloudy Night"><path class="cls-1" d="M56.94,43.61a14.6,14.6,0,0,1-4-28.63.76.76,0,0,1,.94.94,13.22,13.22,0,0,0-.51,3.61A13.09,13.09,0,0,0,66.41,32.61,12.81,12.81,0,0,0,70,32.09a.79.79,0,0,1,.76.2A.76.76,0,0,1,71,33,14.67,14.67,0,0,1,56.94,43.61Z"/><path class="cls-2" d="M50,60.05a10.66,10.66,0,1,0,0-21.32h-.11a17,17,0,0,0-32.44-5.07H17.2a13.2,13.2,0,1,0,0,26.39"/><path class="cls-3" d="M64.22,60.05a6.7,6.7,0,1,0,0-13.39h-.07a10.69,10.69,0,0,0-20.37-3.18h-.16a8.29,8.29,0,1,0,0,16.57"/></g></g></svg>