<svg xmlns="http://www.w3.org/2000/svg" xmlns:xlink="http://www.w3.org/1999/xlink" viewBox="0 0 75 75"><defs><style>.cls-1{fill:url(#New_Gradient_Swatch_1);}.cls-2{fill:url(#New_Gradient_Swatch_copy_2);}.cls-3{fill:#fff;stroke-miterlimit:10;stroke:url(#linear-gradient);}.cls-4{fill:url(#New_Gradient_Swatch_copy);}.cls-5{fill:url(#New_Gradient_Swatch_copy-2);}.cls-6{fill:url(#New_Gradient_Swatch_copy_2-2);}.cls-7{fill:url(#New_Gradient_Swatch_copy_2-3);}.cls-8{fill:url(#New_Gradient_Swatch_copy_2-4);}.cls-9{fill:url(#New_Gradient_Swatch_copy_2-5);}.cls-10{fill:url(#New_Gradient_Swatch_copy_2-6);}</style><linearGradient id="New_Gradient_Swatch_1" x1="46.17" y1="25.26" x2="64.5" y2="6.93" gradientUnits="userSpaceOnUse"><stop offset="0" stop-color="#fdb728"/><stop offset="1" stop-color="#ffcd23"/></linearGradient><linearGradient id="New_Gradient_Swatch_copy_2" x1="15.85" y1="47.27" x2="48.21" y2="14.9" gradientUnits="userSpaceOnUse"><stop offset="0" stop-color="#d0e8f8"/><stop offset="1" stop-color="#e1eef9"/></linearGradient><linearGradient id="linear-gradient" x1="42.43" y1="46.11" x2="63.47" y2="25.08" gradientUnits="userSpaceOnUse"><stop offset="0" stop-color="#347bbf"/><stop offset="1" stop-color="#4f58a7"/></linearGradient><linearGradient id="New_Gradient_Swatch_copy" x1="8.86" y1="58.17" x2="19.36" y2="58.17" gradientUnits="userSpaceOnUse"><stop offset="0" stop-color="#00aeef"/><stop offset="1" stop-color="#00bdf2"/></linearGradient><linearGradient id="New_Gradient_Swatch_copy-2" x1="16" y1="61.21" x2="30" y2="61.21" xlink:href="#New_Gradient_Swatch_copy"/><linearGradient id="New_Gradient_Swatch_copy_2-2" x1="37.23" y1="52.55" x2="41.23" y2="52.55" xlink:href="#New_Gradient_Swatch_copy_2"/><linearGradient id="New_Gradient_Swatch_copy_2-3" x1="47.23" y1="52.55" x2="51.23" y2="52.55" xlink:href="#New_Gradient_Swatch_copy_2"/><linearGradient id="New_Gradient_Swatch_copy_2-4" x1="28.23" y1="69.15" x2="32.23" y2="69.15" xlink:href="#New_Gradient_Swatch_copy_2"/><linearGradient id="New_Gradient_Swatch_copy_2-5" x1="33.23" y1="60.65" x2="37.23" y2="60.65" xlink:href="#New_Gradient_Swatch_copy_2"/><linearGradient id="New_Gradient_Swatch_copy_2-6" x1="43.23" y1="60.65" x2="47.23" y2="60.65" xlink:href="#New_Gradient_Swatch_copy_2"/></defs><g id="Icons"><g id="Sleet_Night" data-name="Sleet Night"><circle class="cls-1" cx="55.34" cy="16.1" r="12.96"/><path class="cls-2" d="M50,43.2a10.67,10.67,0,1,0,0-21.33h-.1a17,17,0,0,0-32.45-5.07h-.25a13.2,13.2,0,0,0,0,26.4"/><path class="cls-3" d="M64.26,43.2a6.7,6.7,0,1,0,0-13.39h-.07a10.69,10.69,0,0,0-20.37-3.18h-.16a8.29,8.29,0,0,0,0,16.58"/><path class="cls-4" d="M10.86,65.8a2,2,0,0,1-1-.26,2,2,0,0,1-.74-2.74l6.5-11.25a2,2,0,1,1,3.47,2L12.59,64.8A2,2,0,0,1,10.86,65.8Z"/><path class="cls-5" d="M18,71.87a2,2,0,0,1-1.73-3l10-17.32a2,2,0,1,1,3.47,2l-10,17.32A2,2,0,0,1,18,71.87Z"/><circle class="cls-6" cx="39.23" cy="52.55" r="2"/><circle class="cls-7" cx="49.23" cy="52.55" r="2"/><circle class="cls-8" cx="30.23" cy="69.15" r="2"/><circle class="cls-9" cx="35.23" cy="60.65" r="2"/><circle class="cls-10" cx="45.23" cy="60.65" r="2"/></g></g></svg>