<svg xmlns="http://www.w3.org/2000/svg" xmlns:xlink="http://www.w3.org/1999/xlink" viewBox="0 0 75 75"><defs><style>.cls-1{fill:url(#New_Gradient_Swatch_copy);}.cls-2{fill:url(#New_Gradient_Swatch_copy_2);}.cls-3{fill:#fff;stroke-miterlimit:10;stroke:url(#linear-gradient);}.cls-4{fill:url(#New_Gradient_Swatch_copy-2);}.cls-5{fill:url(#New_Gradient_Swatch_copy-3);}.cls-6{fill:url(#New_Gradient_Swatch_copy_2-2);}.cls-7{fill:url(#New_Gradient_Swatch_copy_2-3);}.cls-8{fill:url(#New_Gradient_Swatch_copy_2-4);}.cls-9{fill:url(#New_Gradient_Swatch_copy_2-5);}.cls-10{fill:url(#New_Gradient_Swatch_copy_2-6);}</style><linearGradient id="New_Gradient_Swatch_copy" x1="46.62" y1="25.36" x2="62.22" y2="9.76" gradientUnits="userSpaceOnUse"><stop offset="0" stop-color="#00aeef"/><stop offset="1" stop-color="#00bdf2"/></linearGradient><linearGradient id="New_Gradient_Swatch_copy_2" x1="15.8" y1="49.42" x2="48.17" y2="17.06" gradientUnits="userSpaceOnUse"><stop offset="0" stop-color="#d0e8f8"/><stop offset="1" stop-color="#e1eef9"/></linearGradient><linearGradient id="linear-gradient" x1="42.39" y1="48.26" x2="63.42" y2="27.23" gradientUnits="userSpaceOnUse"><stop offset="0" stop-color="#347bbf"/><stop offset="1" stop-color="#4f58a7"/></linearGradient><linearGradient id="New_Gradient_Swatch_copy-2" x1="8.81" y1="60.33" x2="19.31" y2="60.33" xlink:href="#New_Gradient_Swatch_copy"/><linearGradient id="New_Gradient_Swatch_copy-3" x1="15.95" y1="63.36" x2="29.96" y2="63.36" xlink:href="#New_Gradient_Swatch_copy"/><linearGradient id="New_Gradient_Swatch_copy_2-2" x1="37.19" y1="54.7" x2="41.19" y2="54.7" xlink:href="#New_Gradient_Swatch_copy_2"/><linearGradient id="New_Gradient_Swatch_copy_2-3" x1="47.19" y1="54.7" x2="51.19" y2="54.7" xlink:href="#New_Gradient_Swatch_copy_2"/><linearGradient id="New_Gradient_Swatch_copy_2-4" x1="28.19" y1="71.3" x2="32.19" y2="71.3" xlink:href="#New_Gradient_Swatch_copy_2"/><linearGradient id="New_Gradient_Swatch_copy_2-5" x1="33.19" y1="62.8" x2="37.19" y2="62.8" xlink:href="#New_Gradient_Swatch_copy_2"/><linearGradient id="New_Gradient_Swatch_copy_2-6" x1="43.19" y1="62.8" x2="47.19" y2="62.8" xlink:href="#New_Gradient_Swatch_copy_2"/></defs><g id="Icons"><g id="Sleet_Night" data-name="Sleet Night"><path class="cls-1" d="M56.94,29.65A14.6,14.6,0,0,1,52.91,1a.75.75,0,0,1,.75.2.74.74,0,0,1,.19.75A13.07,13.07,0,0,0,66.41,18.64,13.17,13.17,0,0,0,70,18.13a.79.79,0,0,1,.76.19.77.77,0,0,1,.19.75A14.67,14.67,0,0,1,56.94,29.65Z"/><path class="cls-2" d="M50,45.35A10.67,10.67,0,1,0,50,24h-.11A17,17,0,0,0,17.45,19H17.2a13.2,13.2,0,0,0,0,26.4"/><path class="cls-3" d="M64.22,45.35a6.7,6.7,0,1,0,0-13.39h-.07a10.69,10.69,0,0,0-20.37-3.18h-.16a8.29,8.29,0,1,0,0,16.57"/><path class="cls-4" d="M10.81,68a2,2,0,0,1-1-.27A2,2,0,0,1,9.08,65l6.5-11.26a2,2,0,0,1,3.47,2L12.55,67A2,2,0,0,1,10.81,68Z"/><path class="cls-5" d="M18,74a2,2,0,0,1-1-.27A2,2,0,0,1,16.22,71l10-17.32a2,2,0,0,1,3.47,2L19.69,73A2,2,0,0,1,18,74Z"/><circle class="cls-6" cx="39.19" cy="54.7" r="2"/><circle class="cls-7" cx="49.19" cy="54.7" r="2"/><circle class="cls-8" cx="30.19" cy="71.3" r="2"/><circle class="cls-9" cx="35.19" cy="62.8" r="2"/><circle class="cls-10" cx="45.19" cy="62.8" r="2"/></g></g></svg>