<svg xmlns="http://www.w3.org/2000/svg" xmlns:xlink="http://www.w3.org/1999/xlink" viewBox="0 0 75 75"><defs><style>.cls-1{fill:url(#New_Gradient_Swatch_copy);}.cls-2{fill:url(#New_Gradient_Swatch_copy_2);}.cls-3{fill:#fff;stroke-miterlimit:10;stroke:url(#linear-gradient);}.cls-4{fill:url(#New_Gradient_Swatch_copy-2);}.cls-5{fill:url(#New_Gradient_Swatch_copy-3);}.cls-6{fill:url(#New_Gradient_Swatch_copy-4);}</style><linearGradient id="New_Gradient_Swatch_copy" x1="46.62" y1="31.52" x2="62.22" y2="15.92" gradientUnits="userSpaceOnUse"><stop offset="0" stop-color="#00aeef"/><stop offset="1" stop-color="#00bdf2"/></linearGradient><linearGradient id="New_Gradient_Swatch_copy_2" x1="15.8" y1="55.58" x2="48.17" y2="23.22" gradientUnits="userSpaceOnUse"><stop offset="0" stop-color="#d0e8f8"/><stop offset="1" stop-color="#e1eef9"/></linearGradient><linearGradient id="linear-gradient" x1="34.83" y1="40.07" x2="71.42" y2="40.07" gradientUnits="userSpaceOnUse"><stop offset="0" stop-color="#347bbf"/><stop offset="1" stop-color="#4f58a7"/></linearGradient><linearGradient id="New_Gradient_Swatch_copy-2" x1="14.14" y1="63.36" x2="21.03" y2="63.36" xlink:href="#New_Gradient_Swatch_copy"/><linearGradient id="New_Gradient_Swatch_copy-3" x1="27.76" y1="63.36" x2="34.64" y2="63.36" xlink:href="#New_Gradient_Swatch_copy"/><linearGradient id="New_Gradient_Swatch_copy-4" x1="42.37" y1="63.36" x2="49.25" y2="63.36" xlink:href="#New_Gradient_Swatch_copy"/></defs><g id="Icons"><g id="Scattered_Showers_Night" data-name="Scattered Showers Night"><path class="cls-1" d="M56.94,35.81a14.6,14.6,0,0,1-4-28.64.76.76,0,0,1,.94.95A13.07,13.07,0,0,0,66.41,24.8,13.17,13.17,0,0,0,70,24.29a.79.79,0,0,1,.76.19.77.77,0,0,1,.19.75A14.67,14.67,0,0,1,56.94,35.81Z"/><path class="cls-2" d="M50,51.51a10.67,10.67,0,1,0,0-21.33h-.11a17,17,0,0,0-32.44-5.07H17.2a13.2,13.2,0,0,0,0,26.4"/><path class="cls-3" d="M64.22,51.51a6.7,6.7,0,1,0,0-13.39h-.07a10.69,10.69,0,0,0-20.37-3.18h-.16a8.29,8.29,0,1,0,0,16.57"/><path class="cls-4" d="M16.14,67.86a2,2,0,0,1-1-.27,2,2,0,0,1-.73-2.73l2.89-5a2,2,0,1,1,3.46,2l-2.88,5A2,2,0,0,1,16.14,67.86Z"/><path class="cls-5" d="M29.75,67.86a2,2,0,0,1-1.73-3l2.89-5a2,2,0,0,1,3.47,2l-2.89,5A2,2,0,0,1,29.75,67.86Z"/><path class="cls-6" d="M44.37,67.86a2,2,0,0,1-1.73-3l2.88-5a2,2,0,0,1,3.47,2l-2.89,5A2,2,0,0,1,44.37,67.86Z"/></g></g></svg>