<svg xmlns="http://www.w3.org/2000/svg" xmlns:xlink="http://www.w3.org/1999/xlink" viewBox="0 0 75 75"><defs><style>.cls-1{fill:url(#New_Gradient_Swatch_1);}.cls-2{fill:#fff;stroke-miterlimit:10;stroke:url(#linear-gradient);}.cls-3{fill:url(#New_Gradient_Swatch_copy_2);}.cls-4{fill:url(#New_Gradient_Swatch_copy);}.cls-5{fill:url(#New_Gradient_Swatch_copy-2);}.cls-6{fill:url(#New_Gradient_Swatch_copy-3);}</style><linearGradient id="New_Gradient_Swatch_1" x1="43.2" y1="30.27" x2="61.53" y2="11.94" gradientUnits="userSpaceOnUse"><stop offset="0" stop-color="#fdb728"/><stop offset="1" stop-color="#ffcd23"/></linearGradient><linearGradient id="linear-gradient" x1="3.54" y1="32.29" x2="61.21" y2="32.29" gradientUnits="userSpaceOnUse"><stop offset="0" stop-color="#347bbf"/><stop offset="1" stop-color="#4f58a7"/></linearGradient><linearGradient id="New_Gradient_Swatch_copy_2" x1="42.79" y1="53.07" x2="63.11" y2="32.74" gradientUnits="userSpaceOnUse"><stop offset="0" stop-color="#d0e8f8"/><stop offset="1" stop-color="#e1eef9"/></linearGradient><linearGradient id="New_Gradient_Swatch_copy" x1="14.4" y1="62.36" x2="21.28" y2="62.36" gradientUnits="userSpaceOnUse"><stop offset="0" stop-color="#00aeef"/><stop offset="1" stop-color="#00bdf2"/></linearGradient><linearGradient id="New_Gradient_Swatch_copy-2" x1="28.01" y1="62.36" x2="34.9" y2="62.36" xlink:href="#New_Gradient_Swatch_copy"/><linearGradient id="New_Gradient_Swatch_copy-3" x1="42.62" y1="62.36" x2="49.51" y2="62.36" xlink:href="#New_Gradient_Swatch_copy"/></defs><g id="Icons"><g id="Scattered_Showers" data-name="Scattered Showers"><circle class="cls-1" cx="52.36" cy="21.1" r="12.96"/><path class="cls-2" d="M50,50.51a10.67,10.67,0,1,0,0-21.33h-.1a17,17,0,0,0-32.45-5.07h-.25a13.2,13.2,0,1,0,0,26.39"/><path class="cls-3" d="M64.26,50.51a6.7,6.7,0,1,0,0-13.39h-.07a10.69,10.69,0,0,0-20.37-3.18h-.16a8.29,8.29,0,0,0,0,16.57"/><path class="cls-4" d="M16.4,66.86a2,2,0,0,1-1.73-3l2.88-5a2,2,0,0,1,3.47,2l-2.89,5A2,2,0,0,1,16.4,66.86Z"/><path class="cls-5" d="M30,66.86a2,2,0,0,1-1-.27,2,2,0,0,1-.73-2.73l2.88-5a2,2,0,0,1,3.47,2l-2.89,5A2,2,0,0,1,30,66.86Z"/><path class="cls-6" d="M44.62,66.86a2,2,0,0,1-1-.27,2,2,0,0,1-.73-2.73l2.89-5a2,2,0,1,1,3.46,2l-2.89,5A2,2,0,0,1,44.62,66.86Z"/></g></g></svg>