<svg xmlns="http://www.w3.org/2000/svg" xmlns:xlink="http://www.w3.org/1999/xlink" viewBox="0 0 75 75"><defs><style>.cls-1{fill:url(#New_Gradient_Swatch_copy);}.cls-2{fill:url(#New_Gradient_Swatch_copy_2);}.cls-3{fill:#fff;stroke-miterlimit:10;stroke:url(#linear-gradient);}.cls-4{fill:url(#New_Gradient_Swatch_copy_2-2);}.cls-5{fill:url(#New_Gradient_Swatch_copy_2-3);}.cls-6{fill:url(#New_Gradient_Swatch_copy_2-4);}.cls-7{fill:url(#New_Gradient_Swatch_copy_2-5);}.cls-8{fill:url(#New_Gradient_Swatch_copy_2-6);}.cls-9{fill:url(#New_Gradient_Swatch_copy_2-7);}.cls-10{fill:url(#New_Gradient_Swatch_copy_2-8);}.cls-11{fill:url(#New_Gradient_Swatch_copy_2-9);}.cls-12{fill:url(#New_Gradient_Swatch_copy_2-10);}.cls-13{fill:url(#New_Gradient_Swatch_copy_2-11);}.cls-14{fill:url(#New_Gradient_Swatch_copy_2-12);}.cls-15{fill:url(#New_Gradient_Swatch_copy_2-13);}</style><linearGradient id="New_Gradient_Swatch_copy" x1="47.15" y1="25.11" x2="62.75" y2="9.51" gradientUnits="userSpaceOnUse"><stop offset="0" stop-color="#00aeef"/><stop offset="1" stop-color="#00bdf2"/></linearGradient><linearGradient id="New_Gradient_Swatch_copy_2" x1="3.47" y1="27.49" x2="60.14" y2="27.49" gradientUnits="userSpaceOnUse"><stop offset="0" stop-color="#d0e8f8"/><stop offset="1" stop-color="#e1eef9"/></linearGradient><linearGradient id="linear-gradient" x1="41.86" y1="48.62" x2="62.89" y2="27.58" gradientUnits="userSpaceOnUse"><stop offset="0" stop-color="#347bbf"/><stop offset="1" stop-color="#4f58a7"/></linearGradient><linearGradient id="New_Gradient_Swatch_copy_2-2" x1="14.61" y1="55.99" x2="18.61" y2="55.99" xlink:href="#New_Gradient_Swatch_copy_2"/><linearGradient id="New_Gradient_Swatch_copy_2-3" x1="24.61" y1="55.99" x2="28.61" y2="55.99" xlink:href="#New_Gradient_Swatch_copy_2"/><linearGradient id="New_Gradient_Swatch_copy_2-4" x1="34.61" y1="55.99" x2="38.61" y2="55.99" xlink:href="#New_Gradient_Swatch_copy_2"/><linearGradient id="New_Gradient_Swatch_copy_2-5" x1="44.61" y1="55.99" x2="48.61" y2="55.99" xlink:href="#New_Gradient_Swatch_copy_2"/><linearGradient id="New_Gradient_Swatch_copy_2-6" x1="14.61" y1="72.27" x2="18.61" y2="72.27" xlink:href="#New_Gradient_Swatch_copy_2"/><linearGradient id="New_Gradient_Swatch_copy_2-7" x1="24.61" y1="72.27" x2="28.61" y2="72.27" xlink:href="#New_Gradient_Swatch_copy_2"/><linearGradient id="New_Gradient_Swatch_copy_2-8" x1="34.61" y1="72.27" x2="38.61" y2="72.27" xlink:href="#New_Gradient_Swatch_copy_2"/><linearGradient id="New_Gradient_Swatch_copy_2-9" x1="44.61" y1="72.27" x2="48.61" y2="72.27" xlink:href="#New_Gradient_Swatch_copy_2"/><linearGradient id="New_Gradient_Swatch_copy_2-10" x1="9.61" y1="64.27" x2="13.61" y2="64.27" xlink:href="#New_Gradient_Swatch_copy_2"/><linearGradient id="New_Gradient_Swatch_copy_2-11" x1="19.61" y1="64.27" x2="23.61" y2="64.27" xlink:href="#New_Gradient_Swatch_copy_2"/><linearGradient id="New_Gradient_Swatch_copy_2-12" x1="29.61" y1="64.27" x2="33.61" y2="64.27" xlink:href="#New_Gradient_Swatch_copy_2"/><linearGradient id="New_Gradient_Swatch_copy_2-13" x1="39.61" y1="64.27" x2="43.61" y2="64.27" xlink:href="#New_Gradient_Swatch_copy_2"/></defs><g id="Icons"><g id="Snow_Night" data-name="Snow Night"><path class="cls-1" d="M57.47,29.39a14.6,14.6,0,0,1-4-28.63.77.77,0,0,1,.75.19.75.75,0,0,1,.19.75,13.24,13.24,0,0,0-.51,3.62A13.08,13.08,0,0,0,66.94,18.39a12.81,12.81,0,0,0,3.61-.52.79.79,0,0,1,.76.2.77.77,0,0,1,.19.75A14.66,14.66,0,0,1,57.47,29.39Z"/><path class="cls-2" d="M49.47,45.71a10.67,10.67,0,1,0,0-21.33h-.11a17,17,0,0,0-32.44-5.06h-.25a13.2,13.2,0,1,0,0,26.4"/><path class="cls-3" d="M63.69,45.71a6.7,6.7,0,1,0,0-13.4h-.07a10.69,10.69,0,0,0-20.37-3.19h-.16a8.29,8.29,0,0,0,0,16.58"/><circle class="cls-4" cx="16.61" cy="55.99" r="2"/><circle class="cls-5" cx="26.61" cy="55.99" r="2"/><circle class="cls-6" cx="36.61" cy="55.99" r="2"/><circle class="cls-7" cx="46.61" cy="55.99" r="2"/><circle class="cls-8" cx="16.61" cy="72.27" r="2"/><circle class="cls-9" cx="26.61" cy="72.27" r="2"/><circle class="cls-10" cx="36.61" cy="72.27" r="2"/><circle class="cls-11" cx="46.61" cy="72.27" r="2"/><circle class="cls-12" cx="11.61" cy="64.27" r="2"/><circle class="cls-13" cx="21.61" cy="64.27" r="2"/><circle class="cls-14" cx="31.61" cy="64.27" r="2"/><circle class="cls-15" cx="41.61" cy="64.27" r="2"/></g></g></svg>