<svg xmlns="http://www.w3.org/2000/svg" xmlns:xlink="http://www.w3.org/1999/xlink" viewBox="0 0 75 75"><defs><style>.cls-1{fill:url(#New_Gradient_Swatch_copy_2);}.cls-2{fill:url(#New_Gradient_Swatch_copy_2-2);}.cls-3{fill:url(#New_Gradient_Swatch_copy_2-3);}.cls-4{fill:url(#New_Gradient_Swatch_copy_2-4);}.cls-5{fill:url(#New_Gradient_Swatch_copy_2-5);}.cls-6{fill:url(#New_Gradient_Swatch_copy_2-6);}.cls-7{fill:url(#New_Gradient_Swatch_copy_2-7);}.cls-8{fill:url(#New_Gradient_Swatch_copy_2-8);}.cls-9{fill:url(#New_Gradient_Swatch_copy_2-9);}.cls-10{fill:url(#New_Gradient_Swatch_copy_2-10);}.cls-11{fill:url(#New_Gradient_Swatch_copy_2-11);}.cls-12{fill:url(#New_Gradient_Swatch_copy_2-12);}.cls-13{fill:#fff;stroke-miterlimit:10;stroke:url(#linear-gradient);}.cls-14{fill:url(#New_Gradient_Swatch_copy_2-13);}</style><linearGradient id="New_Gradient_Swatch_copy_2" x1="15.18" y1="51.72" x2="19.18" y2="51.72" gradientUnits="userSpaceOnUse"><stop offset="0" stop-color="#d0e8f8"/><stop offset="1" stop-color="#e1eef9"/></linearGradient><linearGradient id="New_Gradient_Swatch_copy_2-2" x1="25.18" y1="51.72" x2="29.18" y2="51.72" xlink:href="#New_Gradient_Swatch_copy_2"/><linearGradient id="New_Gradient_Swatch_copy_2-3" x1="35.18" y1="51.72" x2="39.18" y2="51.72" xlink:href="#New_Gradient_Swatch_copy_2"/><linearGradient id="New_Gradient_Swatch_copy_2-4" x1="45.18" y1="51.72" x2="49.18" y2="51.72" xlink:href="#New_Gradient_Swatch_copy_2"/><linearGradient id="New_Gradient_Swatch_copy_2-5" x1="15.18" y1="68" x2="19.18" y2="68" xlink:href="#New_Gradient_Swatch_copy_2"/><linearGradient id="New_Gradient_Swatch_copy_2-6" x1="25.18" y1="68" x2="29.18" y2="68" xlink:href="#New_Gradient_Swatch_copy_2"/><linearGradient id="New_Gradient_Swatch_copy_2-7" x1="35.18" y1="68" x2="39.18" y2="68" xlink:href="#New_Gradient_Swatch_copy_2"/><linearGradient id="New_Gradient_Swatch_copy_2-8" x1="45.18" y1="68" x2="49.18" y2="68" xlink:href="#New_Gradient_Swatch_copy_2"/><linearGradient id="New_Gradient_Swatch_copy_2-9" x1="10.18" y1="60" x2="14.18" y2="60" xlink:href="#New_Gradient_Swatch_copy_2"/><linearGradient id="New_Gradient_Swatch_copy_2-10" x1="20.18" y1="60" x2="24.18" y2="60" xlink:href="#New_Gradient_Swatch_copy_2"/><linearGradient id="New_Gradient_Swatch_copy_2-11" x1="30.18" y1="60" x2="34.18" y2="60" xlink:href="#New_Gradient_Swatch_copy_2"/><linearGradient id="New_Gradient_Swatch_copy_2-12" x1="40.18" y1="60" x2="44.18" y2="60" xlink:href="#New_Gradient_Swatch_copy_2"/><linearGradient id="linear-gradient" x1="15.49" y1="45.86" x2="48.57" y2="12.79" gradientUnits="userSpaceOnUse"><stop offset="0" stop-color="#347bbf"/><stop offset="1" stop-color="#4f58a7"/></linearGradient><linearGradient id="New_Gradient_Swatch_copy_2-13" x1="42.79" y1="43.99" x2="63.11" y2="23.67" xlink:href="#New_Gradient_Swatch_copy_2"/></defs><g id="Icons"><g id="Snow"><circle class="cls-1" cx="17.18" cy="51.72" r="2"/><circle class="cls-2" cx="27.18" cy="51.72" r="2"/><circle class="cls-3" cx="37.18" cy="51.72" r="2"/><circle class="cls-4" cx="47.18" cy="51.72" r="2"/><circle class="cls-5" cx="17.18" cy="68" r="2"/><circle class="cls-6" cx="27.18" cy="68" r="2"/><circle class="cls-7" cx="37.18" cy="68" r="2"/><circle class="cls-8" cx="47.18" cy="68" r="2"/><circle class="cls-9" cx="12.18" cy="60" r="2"/><circle class="cls-10" cx="22.18" cy="60" r="2"/><circle class="cls-11" cx="32.18" cy="60" r="2"/><circle class="cls-12" cx="42.18" cy="60" r="2"/><path class="cls-13" d="M50,41.44a10.67,10.67,0,1,0,0-21.33h-.1a17,17,0,0,0-32.45-5.06h-.25a13.2,13.2,0,0,0,0,26.4"/><path class="cls-14" d="M64.26,41.44a6.7,6.7,0,0,0,0-13.4h-.07a10.69,10.69,0,0,0-20.37-3.18h-.16a8.29,8.29,0,0,0,0,16.58"/></g></g></svg>