<svg xmlns="http://www.w3.org/2000/svg" xmlns:xlink="http://www.w3.org/1999/xlink" viewBox="0 0 75 75"><defs><style>.cls-1{fill:url(#New_Gradient_Swatch_1);}.cls-2{fill:url(#New_Gradient_Swatch_copy);}.cls-3{fill:url(#New_Gradient_Swatch_copy_2);}.cls-4{fill:#fff;stroke-miterlimit:10;stroke:url(#linear-gradient);}.cls-5{fill:url(#New_Gradient_Swatch_copy-2);}.cls-6{fill:url(#New_Gradient_Swatch_copy-3);}</style><linearGradient id="New_Gradient_Swatch_1" x1="32.79" y1="67.22" x2="52" y2="48.02" gradientUnits="userSpaceOnUse"><stop offset="0" stop-color="#fdb728"/><stop offset="1" stop-color="#ffcd23"/></linearGradient><linearGradient id="New_Gradient_Swatch_copy" x1="46.62" y1="27.84" x2="62.22" y2="12.23" gradientUnits="userSpaceOnUse"><stop offset="0" stop-color="#00aeef"/><stop offset="1" stop-color="#00bdf2"/></linearGradient><linearGradient id="New_Gradient_Swatch_copy_2" x1="15.8" y1="53.01" x2="48.17" y2="20.65" gradientUnits="userSpaceOnUse"><stop offset="0" stop-color="#d0e8f8"/><stop offset="1" stop-color="#e1eef9"/></linearGradient><linearGradient id="linear-gradient" x1="34.83" y1="37.5" x2="71.42" y2="37.5" gradientUnits="userSpaceOnUse"><stop offset="0" stop-color="#347bbf"/><stop offset="1" stop-color="#4f58a7"/></linearGradient><linearGradient id="New_Gradient_Swatch_copy-2" x1="7.82" y1="63.83" x2="18.31" y2="63.83" xlink:href="#New_Gradient_Swatch_copy"/><linearGradient id="New_Gradient_Swatch_copy-3" x1="18.45" y1="63.83" x2="28.95" y2="63.83" xlink:href="#New_Gradient_Swatch_copy"/></defs><g id="Icons"><g id="Mix_Rainfall_Night" data-name="Mix Rainfall Night"><path class="cls-1" d="M44.6,45.2a5.76,5.76,0,0,0-4.5,2.6l-5.27,9.12c-.82,1.43-.15,2.5,1.5,2.38l4.3-.32c1.64-.12,2.34,1,1.56,2.42L37.4,70.2c-.79,1.45-.39,1.78.89.73L55.59,56.7c1.27-1,1-1.83-.68-1.75l-6.61.34c-1.65.08-2.32-1-1.5-2.44l2.91-5c.83-1.43.15-2.6-1.5-2.6Z"/><path class="cls-2" d="M56.94,32.12a14.6,14.6,0,0,1-4-28.64.77.77,0,0,1,.75.2.74.74,0,0,1,.19.75A13.07,13.07,0,0,0,66.41,21.12,13.18,13.18,0,0,0,70,20.6a.76.76,0,0,1,1,.95A14.67,14.67,0,0,1,56.94,32.12Z"/><path class="cls-3" d="M50,48.94a10.67,10.67,0,1,0,0-21.33h-.11a17,17,0,0,0-32.44-5.07H17.2a13.2,13.2,0,0,0,0,26.4"/><path class="cls-4" d="M64.22,48.94a6.7,6.7,0,1,0,0-13.39h-.07a10.69,10.69,0,0,0-20.37-3.18h-.16a8.29,8.29,0,1,0,0,16.57"/><path class="cls-5" d="M9.81,71.46a2,2,0,0,1-1-.27,2,2,0,0,1-.74-2.73l6.5-11.26a2,2,0,0,1,3.47,2l-6.5,11.26A2,2,0,0,1,9.81,71.46Z"/><path class="cls-6" d="M20.45,71.46a2,2,0,0,1-1.73-3l6.5-11.26a2,2,0,1,1,3.46,2l-6.5,11.26A2,2,0,0,1,20.45,71.46Z"/></g></g></svg>