<svg xmlns="http://www.w3.org/2000/svg" xmlns:xlink="http://www.w3.org/1999/xlink" viewBox="0 0 75 75"><defs><style>.cls-1{fill:url(#New_Gradient_Swatch_1);}.cls-2{fill:url(#New_Gradient_Swatch_1-2);}.cls-3{fill:#fff;stroke-miterlimit:10;stroke:url(#linear-gradient);}.cls-4{fill:url(#New_Gradient_Swatch_copy_2);}</style><linearGradient id="New_Gradient_Swatch_1" x1="44.4" y1="28" x2="62.73" y2="9.67" gradientUnits="userSpaceOnUse"><stop offset="0" stop-color="#fdb728"/><stop offset="1" stop-color="#ffcd23"/></linearGradient><linearGradient id="New_Gradient_Swatch_1-2" x1="19.83" y1="64.81" x2="39.04" y2="45.6" xlink:href="#New_Gradient_Swatch_1"/><linearGradient id="linear-gradient" x1="3.54" y1="28.3" x2="61.21" y2="28.3" gradientUnits="userSpaceOnUse"><stop offset="0" stop-color="#347bbf"/><stop offset="1" stop-color="#4f58a7"/></linearGradient><linearGradient id="New_Gradient_Swatch_copy_2" x1="42.79" y1="49.08" x2="63.11" y2="28.76" gradientUnits="userSpaceOnUse"><stop offset="0" stop-color="#d0e8f8"/><stop offset="1" stop-color="#e1eef9"/></linearGradient></defs><g id="Icons"><g id="Scattered_Thunderstorm" data-name="Scattered Thunderstorm"><circle class="cls-1" cx="53.56" cy="18.83" r="12.96"/><path class="cls-2" d="M31.64,42.78a5.77,5.77,0,0,0-4.5,2.6L21.87,54.5c-.82,1.43-.15,2.5,1.5,2.38l4.3-.32c1.64-.12,2.35,1,1.56,2.42l-4.79,8.81c-.78,1.45-.39,1.77.89.73l17.3-14.23c1.27-1,1-1.84-.68-1.76l-6.61.34c-1.65.09-2.32-1-1.5-2.44l2.91-5c.83-1.43.15-2.6-1.5-2.6Z"/><path class="cls-3" d="M50,46.52A10.66,10.66,0,1,0,50,25.2h-.1a17,17,0,0,0-32.45-5.07h-.25a13.2,13.2,0,1,0,0,26.39"/><path class="cls-4" d="M64.26,46.52a6.7,6.7,0,1,0,0-13.39h-.07A10.69,10.69,0,0,0,43.82,30h-.16a8.29,8.29,0,0,0,0,16.57"/></g></g></svg>