<svg xmlns="http://www.w3.org/2000/svg" xmlns:xlink="http://www.w3.org/1999/xlink" viewBox="0 0 75 75"><defs><style>.cls-1{fill:url(#New_Gradient_Swatch_1);}.cls-2{fill:#fff;stroke-miterlimit:10;stroke:url(#linear-gradient);}.cls-3{fill:url(#New_Gradient_Swatch_copy_2);}.cls-4{fill:url(#New_Gradient_Swatch_copy);}.cls-5{fill:url(#New_Gradient_Swatch_copy-2);}</style><linearGradient id="New_Gradient_Swatch_1" x1="32.83" y1="62.7" x2="52.04" y2="43.49" gradientUnits="userSpaceOnUse"><stop offset="0" stop-color="#fdb728"/><stop offset="1" stop-color="#ffcd23"/></linearGradient><linearGradient id="linear-gradient" x1="3.54" y1="26.2" x2="61.21" y2="26.2" gradientUnits="userSpaceOnUse"><stop offset="0" stop-color="#347bbf"/><stop offset="1" stop-color="#4f58a7"/></linearGradient><linearGradient id="New_Gradient_Swatch_copy_2" x1="42.79" y1="46.97" x2="63.11" y2="26.65" gradientUnits="userSpaceOnUse"><stop offset="0" stop-color="#d0e8f8"/><stop offset="1" stop-color="#e1eef9"/></linearGradient><linearGradient id="New_Gradient_Swatch_copy" x1="7.86" y1="59.3" x2="18.36" y2="59.3" gradientUnits="userSpaceOnUse"><stop offset="0" stop-color="#00aeef"/><stop offset="1" stop-color="#00bdf2"/></linearGradient><linearGradient id="New_Gradient_Swatch_copy-2" x1="18.49" y1="59.3" x2="28.99" y2="59.3" xlink:href="#New_Gradient_Swatch_copy"/></defs><g id="Icons"><g id="Mix_Rainfall" data-name="Mix Rainfall"><path class="cls-1" d="M44.64,40.68a5.76,5.76,0,0,0-4.5,2.59l-5.27,9.12c-.82,1.43-.15,2.5,1.5,2.38l4.3-.31c1.64-.12,2.35,1,1.56,2.41l-4.79,8.81c-.78,1.45-.39,1.78.89.73l17.3-14.23c1.27-1,1-1.84-.68-1.75l-6.61.34c-1.65.08-2.32-1-1.5-2.45l2.91-5c.83-1.43.15-2.6-1.5-2.6Z"/><path class="cls-2" d="M50,44.42a10.67,10.67,0,1,0,0-21.33h-.1A17,17,0,0,0,17.49,18h-.25a13.2,13.2,0,0,0,0,26.4"/><path class="cls-3" d="M64.26,44.42a6.7,6.7,0,0,0,0-13.4h-.07a10.69,10.69,0,0,0-20.37-3.19h-.16a8.29,8.29,0,0,0,0,16.58"/><path class="cls-4" d="M9.85,66.93a1.9,1.9,0,0,1-1-.27,2,2,0,0,1-.73-2.73l6.49-11.26a2,2,0,0,1,3.47,2l-6.5,11.26A2,2,0,0,1,9.85,66.93Z"/><path class="cls-5" d="M20.49,66.93a1.93,1.93,0,0,1-1-.27,2,2,0,0,1-.73-2.73l6.5-11.26a2,2,0,1,1,3.46,2l-6.5,11.26A2,2,0,0,1,20.49,66.93Z"/></g></g></svg>