<svg xmlns="http://www.w3.org/2000/svg" xmlns:xlink="http://www.w3.org/1999/xlink" viewBox="0 0 75 75"><defs><style>.cls-1{fill:url(#New_Gradient_Swatch_copy);}.cls-2{fill:url(#New_Gradient_Swatch_copy-2);}.cls-3{fill:url(#New_Gradient_Swatch_copy-3);}</style><linearGradient id="New_Gradient_Swatch_copy" x1="18.62" y1="49.53" x2="59.57" y2="49.53" gradientUnits="userSpaceOnUse"><stop offset="0" stop-color="#00aeef"/><stop offset="1" stop-color="#00bdf2"/></linearGradient><linearGradient id="New_Gradient_Swatch_copy-2" x1="4.78" y1="40.7" x2="70.22" y2="40.7" xlink:href="#New_Gradient_Swatch_copy"/><linearGradient id="New_Gradient_Swatch_copy-3" x1="29.27" y1="25.47" x2="59.57" y2="25.47" xlink:href="#New_Gradient_Swatch_copy"/></defs><g id="Icons"><g id="Breezy"><path class="cls-1" d="M54.43,54.67a5.15,5.15,0,0,1-5.15-5.14,5.26,5.26,0,0,1,.39-2H20.22a1.6,1.6,0,1,1,0-3.2H54.43a5.15,5.15,0,0,1,0,10.29Z"/><path class="cls-2" d="M65.08,45.84a5.15,5.15,0,0,1-5.15-5.14,5.22,5.22,0,0,1,.39-2H6.37a1.6,1.6,0,0,1,0-3.2H65.08a5.15,5.15,0,0,1,0,10.29Z"/><path class="cls-3" d="M54.43,20.33a5.15,5.15,0,0,0-5.15,5.14,5.26,5.26,0,0,0,.39,2H30.87a1.6,1.6,0,1,0,0,3.2H54.43a5.15,5.15,0,0,0,0-10.29Z"/></g></g></svg>